<svg width="327" height="189" viewBox="0 0 327 189" fill="none" xmlns="http://www.w3.org/2000/svg">
<g opacity="0.1">
<path d="M260.318 1C279.405 1 294.787 4.03244 306.464 10.0973C318.141 15.9375 323.979 23.7994 323.979 33.6829C323.979 38.6246 322.519 43.0048 319.6 46.8234C316.681 50.4174 312.864 52.2144 308.148 52.2144C304.555 52.2144 301.636 51.7652 299.39 50.8667C297.145 49.7436 294.899 48.3958 292.654 46.8234C290.633 45.0264 288.612 43.5664 286.591 42.4433C284.345 41.3201 280.977 40.3093 276.486 39.4108C272.219 38.5123 268.739 38.0631 266.044 38.0631C249.202 38.0631 235.954 43.3418 226.298 53.8991C216.867 64.2319 212.151 77.8216 212.151 94.6685C212.151 110.841 216.979 124.319 226.635 135.101C236.291 145.658 248.641 150.937 263.686 150.937C274.689 150.937 282.886 149.589 288.275 146.894C289.622 146.22 291.419 145.097 293.664 143.524C296.134 141.727 298.38 140.38 300.401 139.481C302.422 138.583 304.892 138.133 307.811 138.133C313.425 138.133 317.804 139.93 320.948 143.524C324.316 147.118 326 151.723 326 157.339C326 162.73 322.856 167.784 316.569 172.501C310.281 177.218 301.973 181.037 291.643 183.957C281.314 186.652 270.311 188 258.634 188C241.343 188 226.073 183.957 212.825 175.87C199.801 167.784 189.696 156.665 182.51 142.514C175.324 128.138 171.731 112.189 171.731 94.6685C171.731 76.4739 175.436 60.3009 182.847 46.1496C190.482 31.9982 201.036 20.9916 214.509 13.1297C227.982 5.04324 243.252 1 260.318 1Z" stroke="white" stroke-width="2"/>
<path d="M147.522 149.252C151.788 153.745 153.921 158.799 153.921 164.414C153.921 170.03 151.676 174.747 147.185 178.566C142.918 182.384 138.315 184.294 133.375 184.294C127.536 184.294 122.596 182.047 118.554 177.555L55.2183 106.361V106.304C51.3918 102.315 49.0384 96.8892 49.0384 90.9108C49.0384 84.8987 51.4179 79.4454 55.2819 75.4498L113.502 10.7712C117.768 6.50329 122.708 4.36936 128.322 4.36936C133.262 4.36936 137.641 6.50329 141.459 10.7712C145.501 14.8144 147.522 18.97 147.522 23.2378C147.522 28.6288 144.827 33.6829 139.438 38.4L92.9268 85.2342L147.522 149.252Z" stroke="white" stroke-width="2"/>
<path d="M41.4212 90.8482L41.4197 23.2378C41.4197 17.3976 39.511 12.5682 35.6936 8.74953C31.8762 4.7063 27.0483 2.68469 21.2099 2.68469C15.3715 2.68469 10.5436 4.7063 6.72613 8.74953C2.90871 12.5682 1 17.3976 1 23.2378V163.81C1 169.65 2.90871 174.592 6.72613 178.635C10.5436 182.454 15.3715 184.363 21.2099 184.363C27.0483 184.363 31.8762 182.454 35.6936 178.635C39.511 174.592 41.4197 169.65 41.4197 163.81L41.4212 90.8482Z" stroke="white" stroke-width="2"/>
</g>
</svg>
