<?xml version="1.0" encoding="utf-8"?>
<!-- Generator: Adobe Illustrator 27.5.0, SVG Export Plug-In . SVG Version: 6.00 Build 0)  -->
<svg version="1.1" xmlns="http://www.w3.org/2000/svg" xmlns:xlink="http://www.w3.org/1999/xlink" x="0px" y="0px"
	 viewBox="0 0 3710 3710" style="enable-background:new 0 0 3710 3710;" xml:space="preserve">
<g id="Background">
	<g>
		<g>
			<rect style="fill:#FFFFFF;" width="3710" height="3710"/>
		</g>
	</g>
</g>
<g id="Illustration">
	<g>
		<linearGradient id="SVGID_1_" gradientUnits="userSpaceOnUse" x1="3500.2856" y1="3291.8955" x2="1418.6802" y2="1470.4921">
			<stop  offset="0" style="stop-color:#B37CFF"/>
			<stop  offset="1" style="stop-color:#F895E7"/>
		</linearGradient>
		<path style="opacity:0.3;fill:url(#SVGID_1_);" d="M3146.521,2345.959c-269.027,633.451-985.654,988.314-1607.113,892.591
			c-101.124-15.577-378.358-61.975-623.811-280.868C443.083,2536.298,342.033,1701.9,723.195,1113.879
			c277.419-427.975,774.721-670.58,1247.255-658.445c101.784,2.614,491.862,18.724,834.673,301.398
			c50.352,41.519,161.409,140.181,261.498,296.701C3301.648,1421.071,3321.849,1933.131,3146.521,2345.959z"/>
		<g>
			
				<linearGradient id="SVGID_00000057119408277748529060000005140984915915486892_" gradientUnits="userSpaceOnUse" x1="-357.7993" y1="1617.5214" x2="-881.3308" y2="421.9931" gradientTransform="matrix(-1 0 0 1 1576.179 0)">
				<stop  offset="0" style="stop-color:#53D8FF"/>
				<stop  offset="1" style="stop-color:#3840F7"/>
			</linearGradient>
			<path style="fill:url(#SVGID_00000057119408277748529060000005140984915915486892_);" d="M600.653,1792.75
				c28.779,655.548,625.731,1161.792,1333.33,1130.729c707.6-31.064,1257.893-587.672,1229.114-1243.22
				S2537.366,518.466,1829.767,549.53C1122.167,580.593,571.874,1137.202,600.653,1792.75z"/>
			
				<linearGradient id="SVGID_00000082351168124833066690000001233902038464203701_" gradientUnits="userSpaceOnUse" x1="-329.9783" y1="2633.1694" x2="-1061.4222" y2="789.1946" gradientTransform="matrix(-1 0 0 1 1576.179 0)">
				<stop  offset="0" style="stop-color:#53D8FF"/>
				<stop  offset="1" style="stop-color:#3840F7"/>
			</linearGradient>
			<path style="fill:url(#SVGID_00000082351168124833066690000001233902038464203701_);" d="M2849.333,949.354
				c28.15,45.191,49.855,96.066,45.779,149.151c-4.72,61.467-35.83,119.029-37.425,180.657
				c-2.705,104.517,77.978,192.003,103.146,293.481c28.131,113.425-77.935,242.662-120.193,305.97
				c-42.259,63.308-24.098-51.367-49.724-96.083c-25.626-44.716-80.881,188.158-167.192,239.268
				c-46.308,27.422-100.637,45.676-133.942,87.95c-48.576,61.657-35.117,149.394-27.824,227.548
				c7.293,78.154-3.631,173.401-74.017,208.144c-41.444,20.457-94.124,13.534-131.523,40.689
				c-65.68,47.688-34.305,151.656-60.331,228.538c-28.303,83.606-84.423,84.707-171.251,102.432
				c-86.829,17.725,10.94-173.031-29.736-239.7c-21.38-35.042-54.018-62.928-70.88-100.354
				c-23.385-51.904-16.798-121.252-62.164-155.644c-34.006-25.78-81.324-18.806-123.995-19.182
				c-42.672-0.376-94.571-18.894-99.411-61.291c-4.295-37.619,33.365-67.615,70.211-76.333
				c36.846-8.718,76.108-4.561,112.294-15.703c103.505-31.87,151.782-176.71,259.87-183.487
				c92.392-5.793,169.778,97.914,260.563,79.801c50.611-10.098,85.254-54.921,122.822-90.306
				c48.26-45.456,108.155-79.572,146.471-133.676c38.316-54.104,44.834-140.584-9.674-178.322
				c-40.49-28.034-98.022-16.654-138.023,12.074c-40.001,28.728-67.246,71.351-96.624,110.878
				c-9.073,12.208-19.341,24.859-33.857,29.403c-39.061,12.228-67.564-42.727-58.217-82.576s37.496-74.899,38.819-115.808
				c2.33-72.099-75.311-117.847-143.423-141.604s-148.392-52.081-168.417-121.382c-7.073-24.479-5.218-51.416-16.013-74.496
				c-35.776-76.491-224.557-114.677-179.432-159.031c45.125-44.354,188.349-53.995,216.24-143.321
				c9.985-31.979,20.265-74.251,53.624-77.344c54.337-5.038,85.341,62.22,130.917,73.765c21.636,5.481,23.718,42.231,22.875,87.422
				c-0.612,32.802,25.478,59.892,58.28,60.512c32.802,0.62,59.902-25.463,60.527-58.265c0.232-12.176-1.9-24.482-6.907-36.756
				c-8.775-21.508-25.439-38.708-42.24-54.75c-70.1-66.934-279.274-140.476-235.472-168.967
				c43.802-28.492,254.028-107.12,285.386-63.728c31.358,43.392-20.506,6.65-33.155,58.112
				c-12.649,51.462,155.514,44.562,233.271,66.843c12.838,3.679,27.078,7.262,39.098,1.442c13.436-6.505,19.093-22.144,26.384-35.17
				c39.052-69.767,168.938-24.482,168.938-24.482S2824.182,908.976,2849.333,949.354z"/>
			
				<linearGradient id="SVGID_00000013874029550199615190000003615165353478263691_" gradientUnits="userSpaceOnUse" x1="340.7936" y1="2358.6106" x2="-384.1988" y2="530.9003" gradientTransform="matrix(-1 0 0 1 1576.179 0)">
				<stop  offset="0" style="stop-color:#53D8FF"/>
				<stop  offset="1" style="stop-color:#3840F7"/>
			</linearGradient>
			<path style="fill:url(#SVGID_00000013874029550199615190000003615165353478263691_);" d="M2261.845,632.75
				c18.879,35.195-37.266,34.624-42.851,74.171c-50.543,5.508-71.3-74.179-121.284-83.479c-28.209-5.249-55.56,14.962-70.889,39.217
				c-15.329,24.255-22.479,52.734-35.472,78.316c-29.111,57.32-89.22,97.662-153.297,102.884
				c-13.941,1.136-29.303,0.245-39.797-9.003c-30.463-26.844,13.119-77.274,1.797-116.266
				c-12.938-44.557-77.186-37.797-120.611-54.139c-11.977-4.507-104.098-29.088-105.58-41.799
				c-2.627-22.535,40.11-36.881,87.919-49.175c81-20.829,223.523-19.963,293.188-13.66
				C2047.651,568.202,2202.068,561.426,2261.845,632.75L2261.845,632.75z"/>
			<g>
				
					<linearGradient id="SVGID_00000178894426975481086190000015868869736301334701_" gradientUnits="userSpaceOnUse" x1="210.3258" y1="2860.5977" x2="1120.067" y2="360.8599" gradientTransform="matrix(-1 0 0 1 1576.179 0)">
					<stop  offset="0" style="stop-color:#53D8FF"/>
					<stop  offset="1" style="stop-color:#3840F7"/>
				</linearGradient>
				<path style="fill:url(#SVGID_00000178894426975481086190000015868869736301334701_);" d="M716.215,2146.381
					c-21.002-131.469-19.254-266.54,5.143-397.421c6.508-34.914,21.743-76.537,56.902-81.562
					c40.667-5.813,90.453,40.902,115.911,8.66c11.238-14.232,6.753-34.953,0.388-51.932
					c-16.789-44.781-43.071-85.975-76.606-120.072c-20.833-21.182-44.669-39.959-60.711-64.966
					c-34.31-53.484-10.226-131.641,38.335-172.624c48.56-40.982,111.205,32.511,162.251,3.338s52.635-99.949,62.228-157.955
					c7.106-42.967,38.765-159.376,73.736-102.683c34.971,56.693-46.648,282.373-138.508,390.553
					c-11.08,13.049-23.315,27.663-22.38,44.756c2.235,40.817,61.714,39.001,101.729,47.358
					c49.531,10.346,125.448-16.182,83.552,70.128c-22.096,45.521-127.642,107.825-99.282,138.288
					c28.361,30.463,115.548,118.703,156.458,190.063c40.91,71.361,60.737,160.222,29.886,236.473
					c-30.85,76.251-123.614,128.904-199.338,96.781c-35.442-15.035-74.072-46.293-107.016-26.374
					c-29.835,18.038-25.432,61.335-23.956,96.167c1.476,34.831-18.603,81.07-52.492,72.887
					c-11.151-2.692-19.922-11.147-27.452-19.801C747.315,2291.645,727.673,2218.106,716.215,2146.381z"/>
			</g>
			<ellipse style="opacity:0.24;fill:#FFFFFF;" cx="1951.284" cy="1650.783" rx="1006.331" ry="950.661"/>
			<g style="opacity:0.68;">
				<path style="fill:#FFFFFF;" d="M1536.689,1756.897c-0.028,104.467,3.664,208.949,11.651,313.099
					c7.906,104.143,19.815,208.031,37.685,310.913c8.934,51.432,19.345,102.612,31.818,153.279
					c12.508,50.645,27.004,100.829,44.798,149.809c17.933,48.843,38.827,96.93,66.994,140.52
					c14.174,21.628,30.244,42.233,49.744,58.946c9.743,8.308,20.36,15.6,31.886,20.904c11.509,5.27,23.922,8.589,36.522,8.905
					c12.599,0.418,25.179-2.221,36.888-6.995c11.747-4.757,22.598-11.702,32.56-19.719c19.935-16.158,36.355-36.512,50.784-57.957
					c14.406-21.539,26.76-44.476,37.938-67.945c11.135-23.504,21.042-47.61,30.063-72.048
					c18.035-48.891,32.691-99.033,45.326-149.647c12.614-50.632,23.148-101.789,32.172-153.208
					c18.006-102.858,30.06-206.735,37.954-310.875c7.833-104.16,11.393-208.632,11.187-313.077
					c0.174-104.459-2.285-208.961-9.019-313.223c-6.687-104.247-17.19-208.301-33.311-311.506
					c-8.091-51.591-17.609-102.967-29.161-153.881c-11.58-50.893-25.121-101.378-42.02-150.729
					c-8.495-24.651-17.802-49.031-28.436-72.811c-10.618-23.776-22.52-47.009-36.502-68.919
					c-14.007-21.815-30.125-42.566-50.032-59.074c-9.949-8.183-20.868-15.274-32.77-20.092c-11.856-4.868-24.665-7.431-37.481-7.018
					c-12.825,0.339-25.438,3.77-37.142,9.025c-11.717,5.318-22.538,12.537-32.502,20.75c-19.937,16.526-36.541,36.83-51.26,58.204
					c-14.677,21.465-27.479,44.211-39.026,67.558c-11.573,23.342-21.87,47.322-31.361,71.606
					c-18.902,48.62-34.434,98.527-47.897,148.951c-13.415,50.447-24.698,101.459-34.392,152.764
					c-19.396,102.623-32.458,206.398-41.083,310.478C1540.544,1547.973,1536.535,1652.446,1536.689,1756.897z M1523.872,1756.897
					c0.551-209.515,16.916-419.449,57.253-625.272c10.196-51.411,21.984-102.522,35.915-153.069
					c13.981-50.523,30.039-100.53,49.495-149.272c9.769-24.347,20.352-48.392,32.231-71.818
					c11.851-23.428,24.977-46.272,40.028-67.866c15.1-21.501,32.124-41.972,52.681-58.708c10.278-8.316,21.47-15.648,33.643-21.042
					c12.157-5.364,25.326-8.718,38.688-9.095c13.354-0.501,26.771,2.022,39.141,6.985c12.422,4.901,23.762,12.134,34.06,20.45
					c20.6,16.777,37.156,37.749,51.557,59.727c14.368,22.074,26.594,45.427,37.518,69.304c10.94,23.882,20.531,48.342,29.301,73.066
					c17.45,49.496,31.509,100.092,43.599,151.093c12.059,51.019,22.078,102.494,30.664,154.188
					c17.109,103.409,28.587,207.676,36.238,312.171c3.805,52.254,6.639,104.578,8.552,156.935
					c1.832,52.358,3.152,104.748,2.927,157.143c-0.458,104.805-4.696,209.596-13.22,314.056
					c-8.585,104.442-21.343,208.602-40.079,311.764c-9.387,51.571-20.296,102.888-33.298,153.704
					c-13.025,50.797-28.086,101.143-46.579,150.314c-9.25,24.577-19.401,48.843-30.816,72.549
					c-11.461,23.671-24.124,46.844-38.951,68.71c-14.861,21.771-31.783,42.555-52.669,59.279
					c-10.444,8.292-21.905,15.548-34.464,20.547c-12.511,5.043-26.106,7.719-39.685,7.317c-13.596-0.251-26.991-3.75-39.262-9.278
					c-12.296-5.564-23.487-13.166-33.686-21.743c-20.402-17.266-36.961-38.282-51.56-60.226
					c-14.541-22.045-27.057-45.289-38.333-69.048c-11.266-23.773-21.275-48.095-30.434-72.707
					c-18.262-49.255-33.174-99.641-46.083-150.469c-12.873-50.849-23.671-102.188-32.98-153.776
					C1538.498,2176.292,1524.178,1966.382,1523.872,1756.897z"/>
				<path style="fill:#FFFFFF;" d="M1010.13,1756.897c0.324,133.547,17.09,267.206,52.444,396.063
					c35.596,128.649,89.157,252.777,162.735,364.354c36.764,55.737,78.498,108.257,125.221,155.982
					c46.743,47.647,98.346,90.746,154.77,126.526c56.484,35.601,117.486,64.127,181.354,83.541
					c63.833,19.462,130.489,29.711,197.278,29.971c66.791-0.311,133.431-10.611,197.235-30.116
					c63.841-19.459,124.8-48.021,181.236-83.654c56.375-35.81,107.915-78.939,154.592-126.603
					c46.658-47.742,88.325-100.272,125.018-156.009c73.453-111.564,126.917-235.647,162.372-364.243
					c17.642-64.375,30.462-130.023,39.14-196.175c8.691-66.162,13.005-132.887,13.207-199.636
					c-0.167-66.751-4.447-133.48-13.103-199.649c-8.643-66.162-21.422-131.827-39.027-196.223
					c-35.378-128.639-88.772-252.792-162.185-364.452c-36.679-55.78-78.341-108.358-125.003-156.153
					c-46.678-47.724-98.248-90.886-154.631-126.79c-56.451-35.709-117.421-64.446-181.354-83.912
					c-63.902-19.484-130.631-29.746-197.495-30.007c-66.863,0.215-133.608,10.431-197.535,29.873
					c-63.96,19.421-124.975,48.114-181.475,83.789c-56.434,35.871-108.067,79.004-154.81,126.711
					c-46.728,47.776-88.457,100.346-125.208,156.125c-73.539,111.673-127.027,235.872-162.548,364.563
					C1027.069,1489.67,1010.378,1623.35,1010.13,1756.897z M995.437,1756.897c0.762-134.813,18.126-269.671,54.245-399.643
					c36.717-129.679,92.022-254.44,167.129-366.43c37.547-55.94,80.084-108.593,127.612-156.363
					c47.513-47.742,100.027-90.638,157.087-126.493c57.111-35.729,118.794-64.226,183.289-83.672
					c64.456-19.517,131.754-29.733,199.135-29.863c67.381,0.084,134.694,10.252,199.177,29.729
					c64.522,19.403,126.25,47.852,183.408,83.549c57.112,35.823,109.688,78.688,157.267,126.413
					c47.593,47.752,90.198,100.396,127.815,156.336c75.234,112.002,130.632,236.808,167.494,366.54
					c18.161,64.982,31.646,131.252,40.603,198.112c8.916,66.872,13.407,134.312,13.739,201.783
					c-0.561,134.898-17.802,269.913-54.126,399.954c-36.787,129.775-92.113,254.65-167.306,366.75
					c-37.605,55.981-80.206,108.674-127.804,156.478c-47.578,47.784-100.184,90.685-157.305,126.598
					c-57.174,35.775-118.913,64.401-183.529,83.809c-64.577,19.454-131.981,29.585-199.435,29.62
					c-67.454-0.086-134.841-10.267-199.391-29.766c-64.586-19.453-126.284-48.117-183.41-83.92
					c-57.071-35.945-109.613-78.877-157.128-126.678c-47.532-47.821-90.063-100.522-127.599-156.507
					c-75.065-112.085-130.297-236.916-166.942-366.638C1013.413,2026.587,996.123,1891.709,995.437,1756.897z"/>
				<path style="fill:#FFFFFF;" d="M2922.542,1298.465l-267.292,1.778l-267.29,1.019l-534.582,0.815l-534.58-0.898l-267.292-1.106
					l-267.29-1.925c-0.359-0.003-0.646-0.296-0.643-0.653c0.002-0.355,0.289-0.642,0.643-0.645l267.29-1.925l267.292-1.105
					l534.58-0.899l534.582,0.817l267.29,1.017l267.292,1.777c0.532,0.005,0.962,0.44,0.959,0.974
					C2923.498,1298.035,2923.068,1298.462,2922.542,1298.465z"/>
				<path style="fill:#FFFFFF;" d="M2612.452,850.776l-189.77,1.784l-189.768,1.012c-63.255,0.43-126.512,0.384-189.768,0.517
					l-189.77,0.298l-379.536-0.898l-189.769-1.105c-63.255-0.655-126.512-1.038-189.768-1.926c-0.359-0.005-0.645-0.299-0.64-0.658
					c0.005-0.352,0.289-0.633,0.64-0.64c63.255-0.886,126.512-1.27,189.768-1.926l189.769-1.103l379.536-0.9l189.77,0.299
					c63.255,0.132,126.512,0.086,189.768,0.518l189.768,1.01l189.77,1.784c0.532,0.005,0.962,0.443,0.958,0.976
					C2613.405,850.346,2612.977,850.771,2612.452,850.776z"/>
				<path style="fill:#FFFFFF;" d="M3015.427,1746.154l-290.513,1.778l-290.511,1.019l-581.026,0.815l-581.024-0.898l-290.513-1.106
					l-290.511-1.925c-0.359-0.002-0.648-0.294-0.645-0.653c0.002-0.355,0.289-0.642,0.645-0.645l290.511-1.925l290.513-1.105
					l581.024-0.9l581.026,0.817l290.511,1.017l290.513,1.778c0.534,0.003,0.964,0.44,0.961,0.972
					C3016.385,1745.722,3015.955,1746.151,3015.427,1746.154z"/>
				<path style="fill:#FFFFFF;" d="M2922.542,2193.843l-267.292,1.778l-267.29,1.019l-534.582,0.815l-534.58-0.898l-267.292-1.106
					l-267.29-1.925c-0.359-0.003-0.646-0.294-0.643-0.653c0.002-0.355,0.289-0.642,0.643-0.645l267.29-1.925l267.292-1.104
					l534.58-0.9l534.582,0.817l267.29,1.017l267.292,1.778c0.532,0.005,0.962,0.44,0.959,0.974
					C2923.498,2193.413,2923.068,2193.839,2922.542,2193.843z"/>
				<path style="fill:#FFFFFF;" d="M2574.206,2643.952H1056.058c-1.87,0-3.386-1.515-3.386-3.386s1.516-3.386,3.386-3.386h1518.148
					c1.87,0,3.386,1.515,3.386,3.386S2576.076,2643.952,2574.206,2643.952z"/>
			</g>
		</g>
		<g>
			<g>
				<g>
					
						<linearGradient id="SVGID_00000087400359944052905180000009466532054150298529_" gradientUnits="userSpaceOnUse" x1="2658.8718" y1="897.0975" x2="2938.0061" y2="897.0975">
						<stop  offset="0" style="stop-color:#CB236D"/>
						<stop  offset="0.867" style="stop-color:#5D246D"/>
						<stop  offset="1" style="stop-color:#4C246D"/>
					</linearGradient>
					
						<circle style="fill:url(#SVGID_00000087400359944052905180000009466532054150298529_);" cx="2798.439" cy="897.097" r="139.567"/>
					
						<linearGradient id="SVGID_00000127021759751636452550000012247282848215858342_" gradientUnits="userSpaceOnUse" x1="2658.6172" y1="1041.8358" x2="2938.0205" y2="1041.8358">
						<stop  offset="0" style="stop-color:#CB236D"/>
						<stop  offset="0.867" style="stop-color:#5D246D"/>
						<stop  offset="1" style="stop-color:#4C246D"/>
					</linearGradient>
					<path style="fill:url(#SVGID_00000127021759751636452550000012247282848215858342_);" d="M2937.752,889.615h-139.313h-139.567
						c0,0-11.111,77.466,113.451,289.647c5.435,9.258,15.365,14.79,26.1,14.795c10.735,0.005,20.683-5.435,26.116-14.692
						C2949.088,967.165,2937.752,889.615,2937.752,889.615z"/>
				</g>
				<g>
					<path style="opacity:0.8;fill:#FFFFFF;" d="M2798.377,1198.585v0.785h0.043c-12.148,0-23.487-6.684-29.592-17.082
						c-72.81-124.027-99.49-202.449-109.047-246.33c-2.725-10.094-4.291-19.99-4.785-30.136c-0.843-10.378-0.198-14.75-0.122-15.213
						l0.367-2.233c5.624-74.971,68.019-133.317,143.198-133.317c76.167,0,139.126,59.173,143.382,134.74
						c0.107,0.989,0.311,3.498,0.231,7.693l0.006,0.515c0,13.708-1.937,27.286-5.756,40.358
						c-9.887,43.843-36.73,121.491-108.3,243.426C2821.859,1192.259,2810.934,1198.585,2798.377,1198.585z M2662.681,895.894
						c-0.033,2.093,0.031,5.081,0.398,9.581l0.009-0.015c0.464,9.611,1.949,18.866,4.542,28.445l0.048,0.16
						c9.414,43.286,35.817,120.726,108.139,243.921c4.656,7.931,13.288,12.851,22.577,12.855l-0.017,4.043v-4.052
						c8.372,0,17.942-4.968,22.637-12.967c71.11-121.154,97.659-198.149,107.396-241.407l0.072-0.25
						c3.626-12.369,4.657-25.222,4.657-38.202l-0.814-0.57v-0.046c0-4.04,0.684-6.225,0.619-6.798l0.386-0.235
						c-3.962-71.328-63.189-127.202-135.094-127.202c-71.767,0-131.088,56.662-135.18,128.615l-0.116,4.12H2662.681z"/>
				</g>
				
					<ellipse transform="matrix(0.7071 -0.7071 0.7071 0.7071 185.7503 2241.7354)" style="fill:#FFFFFF;" cx="2798.889" cy="896.647" rx="80.589" ry="80.589"/>
				<g>
					
						<linearGradient id="SVGID_00000098198689244287340150000013843900805267006910_" gradientUnits="userSpaceOnUse" x1="3069.5864" y1="679.9679" x2="2136.134" y2="1427.149">
						<stop  offset="0" style="stop-color:#CB236D"/>
						<stop  offset="0.867" style="stop-color:#5D246D"/>
						<stop  offset="1" style="stop-color:#4C246D"/>
					</linearGradient>
					<path style="fill:url(#SVGID_00000098198689244287340150000013843900805267006910_);" d="M2798.889,981.738
						c-46.919,0-85.091-38.172-85.091-85.091c0-46.919,38.172-85.091,85.091-85.091c46.919,0,85.091,38.172,85.091,85.091
						C2883.98,943.567,2845.809,981.738,2798.889,981.738z M2798.889,820.561c-41.954,0-76.087,34.132-76.087,76.087
						c0,41.954,34.133,76.087,76.087,76.087c41.954,0,76.087-34.133,76.087-76.087
						C2874.976,854.693,2840.844,820.561,2798.889,820.561z"/>
				</g>
			</g>
			<g>
				<path style="fill:#FFFFFF;" d="M2722.443,812.742c-0.38,0-0.758-0.16-1.025-0.471c-0.486-0.566-0.421-1.418,0.145-1.904
					c22.639-19.443,51.564-30.151,81.446-30.151c0.746,0,1.351,0.604,1.351,1.351s-0.604,1.351-1.351,1.351
					c-29.237,0-57.536,10.476-79.686,29.499C2723.067,812.634,2722.754,812.742,2722.443,812.742z"/>
			</g>
			<g>
				<path style="fill:#FFFFFF;" d="M2679.289,906.636c-0.746,0-1.351-0.605-1.351-1.351c0-23.337,6.47-46.103,18.71-65.836
					c0.394-0.634,1.226-0.829,1.86-0.436c0.634,0.393,0.829,1.226,0.436,1.86c-11.975,19.305-18.305,41.579-18.305,64.412
					C2680.639,906.032,2680.035,906.636,2679.289,906.636z"/>
			</g>
		</g>
		<g>
			<g>
				<g>
					
						<linearGradient id="SVGID_00000144326096331775347520000008529361113624475835_" gradientUnits="userSpaceOnUse" x1="2033.415" y1="1940.0488" x2="2312.5491" y2="1940.0488">
						<stop  offset="0" style="stop-color:#CB236D"/>
						<stop  offset="0.867" style="stop-color:#5D246D"/>
						<stop  offset="1" style="stop-color:#4C246D"/>
					</linearGradient>
					
						<circle style="fill:url(#SVGID_00000144326096331775347520000008529361113624475835_);" cx="2172.982" cy="1940.049" r="139.567"/>
					
						<linearGradient id="SVGID_00000142136900941533121830000001680198904895740803_" gradientUnits="userSpaceOnUse" x1="2033.1603" y1="2084.7871" x2="2312.5635" y2="2084.7871">
						<stop  offset="0" style="stop-color:#CB236D"/>
						<stop  offset="0.867" style="stop-color:#5D246D"/>
						<stop  offset="1" style="stop-color:#4C246D"/>
					</linearGradient>
					<path style="fill:url(#SVGID_00000142136900941533121830000001680198904895740803_);" d="M2312.295,1932.566h-139.313h-139.567
						c0,0-11.111,77.466,113.45,289.647c5.435,9.258,15.365,14.79,26.1,14.795c10.735,0.005,20.683-5.435,26.117-14.693
						C2323.631,2010.116,2312.295,1932.566,2312.295,1932.566z"/>
				</g>
				<g>
					<path style="opacity:0.8;fill:#FFFFFF;" d="M2172.92,2241.537v0.785h0.043c-12.148,0-23.488-6.684-29.592-17.082
						c-72.81-124.027-99.49-202.448-109.047-246.33c-2.725-10.094-4.291-19.99-4.785-30.136c-0.843-10.378-0.198-14.75-0.122-15.213
						l0.367-2.233c5.623-74.971,68.019-133.317,143.198-133.317c76.167,0,139.126,59.173,143.382,134.74
						c0.107,0.989,0.311,3.498,0.231,7.693l0.006,0.515c0,13.708-1.937,27.286-5.756,40.358
						c-9.887,43.843-36.73,121.491-108.3,243.426C2196.402,2235.211,2185.477,2241.537,2172.92,2241.537z M2037.224,1938.845
						c-0.034,2.093,0.03,5.081,0.397,9.582l0.009-0.015c0.464,9.611,1.949,18.866,4.542,28.445l0.048,0.161
						c9.414,43.286,35.817,120.726,108.139,243.921c4.656,7.931,13.288,12.851,22.576,12.855l-0.017,4.043v-4.052
						c8.372,0,17.943-4.968,22.637-12.967c71.111-121.154,97.659-198.149,107.396-241.406l0.072-0.25
						c3.626-12.369,4.657-25.222,4.657-38.202l-0.814-0.57v-0.046c0-4.04,0.684-6.225,0.619-6.798l0.386-0.235
						c-3.962-71.328-63.189-127.202-135.094-127.202c-71.767,0-131.089,56.662-135.18,128.615l-0.116,4.121H2037.224z"/>
				</g>
				
					<ellipse transform="matrix(0.7071 -0.7071 0.7071 0.7071 -734.9197 2104.9441)" style="fill:#FFFFFF;" cx="2173.432" cy="1939.599" rx="80.589" ry="80.589"/>
				<g>
					
						<linearGradient id="SVGID_00000002368005743934670020000013586183000084994450_" gradientUnits="userSpaceOnUse" x1="2444.1294" y1="1722.9192" x2="1510.6774" y2="2470.1003">
						<stop  offset="0" style="stop-color:#CB236D"/>
						<stop  offset="0.867" style="stop-color:#5D246D"/>
						<stop  offset="1" style="stop-color:#4C246D"/>
					</linearGradient>
					<path style="fill:url(#SVGID_00000002368005743934670020000013586183000084994450_);" d="M2173.432,2024.69
						c-46.919,0-85.091-38.172-85.091-85.091c0-46.919,38.172-85.091,85.091-85.091c46.919,0,85.091,38.172,85.091,85.091
						C2258.523,1986.518,2220.352,2024.69,2173.432,2024.69z M2173.432,1863.512c-41.954,0-76.086,34.132-76.086,76.087
						c0,41.954,34.132,76.087,76.086,76.087c41.954,0,76.087-34.133,76.087-76.087
						C2249.519,1897.644,2215.386,1863.512,2173.432,1863.512z"/>
				</g>
			</g>
			<g>
				<path style="fill:#FFFFFF;" d="M2096.986,1855.693c-0.38,0-0.758-0.16-1.025-0.471c-0.486-0.566-0.421-1.418,0.145-1.904
					c22.639-19.443,51.564-30.151,81.446-30.151c0.746,0,1.35,0.604,1.35,1.35c0,0.746-0.604,1.351-1.35,1.351
					c-29.237,0-57.536,10.477-79.687,29.499C2097.61,1855.586,2097.297,1855.693,2096.986,1855.693z"/>
			</g>
			<g>
				<path style="fill:#FFFFFF;" d="M2053.832,1949.588c-0.746,0-1.351-0.605-1.351-1.35c0-23.337,6.47-46.103,18.71-65.836
					c0.394-0.634,1.226-0.829,1.86-0.436c0.634,0.393,0.829,1.226,0.436,1.86c-11.975,19.305-18.305,41.579-18.305,64.412
					C2055.182,1948.983,2054.578,1949.588,2053.832,1949.588z"/>
			</g>
		</g>
		<g>
			<g>
				<g>
					
						<linearGradient id="SVGID_00000127018735569317694590000006413223947746857626_" gradientUnits="userSpaceOnUse" x1="1947.4973" y1="1130.9061" x2="2226.6316" y2="1130.9061">
						<stop  offset="0" style="stop-color:#CB236D"/>
						<stop  offset="0.867" style="stop-color:#5D246D"/>
						<stop  offset="1" style="stop-color:#4C246D"/>
					</linearGradient>
					
						<circle style="fill:url(#SVGID_00000127018735569317694590000006413223947746857626_);" cx="2087.064" cy="1130.906" r="139.567"/>
					
						<linearGradient id="SVGID_00000134953532344043676360000009999876555964787331_" gradientUnits="userSpaceOnUse" x1="1947.2427" y1="1275.6444" x2="2226.6458" y2="1275.6444">
						<stop  offset="0" style="stop-color:#CB236D"/>
						<stop  offset="0.867" style="stop-color:#5D246D"/>
						<stop  offset="1" style="stop-color:#4C246D"/>
					</linearGradient>
					<path style="fill:url(#SVGID_00000134953532344043676360000009999876555964787331_);" d="M2226.377,1123.424h-139.313h-139.567
						c0,0-11.111,77.466,113.45,289.647c5.435,9.258,15.365,14.79,26.1,14.795c10.735,0.005,20.683-5.435,26.117-14.692
						C2237.713,1200.973,2226.377,1123.424,2226.377,1123.424z"/>
				</g>
				<g>
					<path style="opacity:0.8;fill:#FFFFFF;" d="M2087.002,1432.394v0.785h0.043c-12.148,0-23.488-6.684-29.592-17.082
						c-72.81-124.027-99.49-202.448-109.047-246.33c-2.725-10.094-4.291-19.99-4.785-30.136c-0.843-10.378-0.198-14.75-0.122-15.213
						l0.367-2.233c5.623-74.971,68.019-133.317,143.198-133.317c76.167,0,139.126,59.173,143.382,134.74
						c0.107,0.989,0.311,3.498,0.231,7.693l0.006,0.515c0,13.708-1.937,27.286-5.756,40.358
						c-9.887,43.843-36.73,121.491-108.3,243.426C2110.485,1426.068,2099.56,1432.394,2087.002,1432.394z M1951.306,1129.702
						c-0.033,2.093,0.03,5.082,0.397,9.582l0.009-0.015c0.464,9.611,1.949,18.865,4.542,28.445l0.048,0.161
						c9.414,43.286,35.817,120.726,108.139,243.921c4.656,7.931,13.288,12.851,22.576,12.855l-0.017,4.043v-4.052
						c8.372,0,17.943-4.968,22.637-12.967c71.11-121.154,97.659-198.149,107.396-241.407l0.072-0.25
						c3.626-12.369,4.657-25.222,4.657-38.202l-0.814-0.57v-0.046c0-4.04,0.684-6.225,0.619-6.798l0.386-0.235
						c-3.962-71.328-63.188-127.202-135.094-127.202c-71.767,0-131.089,56.662-135.18,128.615l-0.116,4.121H1951.306z"/>
				</g>
				
					<ellipse transform="matrix(0.7071 -0.7071 0.7071 0.7071 -187.9341 1807.1986)" style="fill:#FFFFFF;" cx="2087.515" cy="1130.456" rx="80.589" ry="80.589"/>
				<g>
					
						<linearGradient id="SVGID_00000063617365471966278490000009761201389140880315_" gradientUnits="userSpaceOnUse" x1="2358.2119" y1="913.7765" x2="1424.7595" y2="1660.9576">
						<stop  offset="0" style="stop-color:#CB236D"/>
						<stop  offset="0.867" style="stop-color:#5D246D"/>
						<stop  offset="1" style="stop-color:#4C246D"/>
					</linearGradient>
					<path style="fill:url(#SVGID_00000063617365471966278490000009761201389140880315_);" d="M2087.515,1215.547
						c-46.919,0-85.091-38.172-85.091-85.091c0-46.919,38.172-85.091,85.091-85.091c46.919,0,85.091,38.172,85.091,85.091
						C2172.606,1177.375,2134.434,1215.547,2087.515,1215.547z M2087.515,1054.369c-41.954,0-76.087,34.132-76.087,76.087
						c0,41.954,34.133,76.087,76.087,76.087c41.954,0,76.087-34.132,76.087-76.087
						C2163.601,1088.502,2129.469,1054.369,2087.515,1054.369z"/>
				</g>
			</g>
			<g>
				<path style="fill:#FFFFFF;" d="M2011.068,1046.55c-0.38,0-0.758-0.16-1.025-0.471c-0.486-0.566-0.421-1.418,0.145-1.904
					c22.639-19.443,51.564-30.151,81.446-30.151c0.746,0,1.35,0.604,1.35,1.351c0,0.746-0.604,1.351-1.35,1.351
					c-29.237,0-57.536,10.477-79.686,29.499C2011.693,1046.443,2011.38,1046.55,2011.068,1046.55z"/>
			</g>
			<g>
				<path style="fill:#FFFFFF;" d="M1967.914,1140.445c-0.746,0-1.351-0.605-1.351-1.351c0-23.337,6.47-46.103,18.71-65.836
					c0.394-0.634,1.226-0.829,1.86-0.436c0.634,0.393,0.829,1.226,0.436,1.86c-11.975,19.305-18.305,41.579-18.305,64.412
					C1969.265,1139.84,1968.66,1140.445,1967.914,1140.445z"/>
			</g>
		</g>
		<g>
			
				<linearGradient id="SVGID_00000013889115714270809680000003149322041285338546_" gradientUnits="userSpaceOnUse" x1="4245.9497" y1="1630.4896" x2="4634.3613" y2="1341.573" gradientTransform="matrix(0.9727 -0.2318 0.2318 0.9727 -3353.8916 521.2909)">
				<stop  offset="0" style="stop-color:#53D8FF"/>
				<stop  offset="0.249" style="stop-color:#4AA3FC"/>
				<stop  offset="0.4842" style="stop-color:#4278FA"/>
				<stop  offset="0.6951" style="stop-color:#3D59F8"/>
				<stop  offset="0.8741" style="stop-color:#3947F7"/>
				<stop  offset="1" style="stop-color:#3840F7"/>
			</linearGradient>
			<path style="fill:url(#SVGID_00000013889115714270809680000003149322041285338546_);" d="M1366.159,996.286l-106.122-34.824
				c-2.184-0.717-4.559-0.57-6.638,0.409l-114.05,53.695c-3.073,1.447-5.069,4.5-5.162,7.896c-0.092,3.396,1.735,6.554,4.725,8.165
				l87.577,47.211L1366.159,996.286z"/>
			
				<linearGradient id="SVGID_00000112596509212489686780000007195840243894546309_" gradientUnits="userSpaceOnUse" x1="4231.1094" y1="1259.1265" x2="2706.0659" y2="1534.6793" gradientTransform="matrix(0.9886 -0.1507 0.1507 0.9886 -2965.6995 466.8693)">
				<stop  offset="0" style="stop-color:#FDF53F"/>
				<stop  offset="1" style="stop-color:#D93C65"/>
			</linearGradient>
			<path style="fill:url(#SVGID_00000112596509212489686780000007195840243894546309_);" d="M592.674,1296.384
				c0,0,1069.935-471.492,1116.964-468.103c47.029,3.388,136.268,30.776,159.288,25.29c23.02-5.486,106.88-10.875,99.878,51.612
				c-7.003,62.487-891.909,463.123-1008.879,452.076c-116.97-11.048-407.363-14.825-407.363-14.825
				S517.913,1309.335,592.674,1296.384z"/>
			
				<linearGradient id="SVGID_00000152986525193329151140000012710954351417706644_" gradientUnits="userSpaceOnUse" x1="693.8466" y1="800.2463" x2="671.3208" y2="1981.2412">
				<stop  offset="0" style="stop-color:#FDF53F"/>
				<stop  offset="1" style="stop-color:#D93C65"/>
			</linearGradient>
			<path style="fill:url(#SVGID_00000152986525193329151140000012710954351417706644_);" d="M903.37,1164.031l-182.588-50.528
				c-11.449-3.168-21.778-9.486-29.815-18.234l-93.542-101.826c-7.412-8.069-19.234-10.365-29.12-5.643
				c-31.651,15.12-97.089,47.428-95.52,55.361c2.067,10.454,98.743,262.09,98.743,262.09L903.37,1164.031z"/>
			
				<linearGradient id="SVGID_00000047755276316553297200000015210132361409268156_" gradientUnits="userSpaceOnUse" x1="4193.3618" y1="1135.6962" x2="3480.3025" y2="1683.7937" gradientTransform="matrix(0.9717 -0.2361 0.2361 0.9717 -3181.3533 636.8878)">
				<stop  offset="0" style="stop-color:#FDF53F"/>
				<stop  offset="1" style="stop-color:#D93C65"/>
			</linearGradient>
			<path style="fill:url(#SVGID_00000047755276316553297200000015210132361409268156_);" d="M612.13,1331.072l-0.133,58.023
				c-0.023,9.79,4.358,18.686,12.034,24.762c7.676,6.075,17.627,7.933,27.15,5.663l56.901-13.561
				c8.986-2.141,16.692-7.702,20.98-15.883l73.566-140.092L612.13,1331.072z"/>
			
				<linearGradient id="SVGID_00000054246506625443898810000009355885361814308760_" gradientUnits="userSpaceOnUse" x1="1483.2201" y1="962.8839" x2="1183.948" y2="1709.4543">
				<stop  offset="0" style="stop-color:#FDF53F"/>
				<stop  offset="1" style="stop-color:#D93C65"/>
			</linearGradient>
			<path style="fill:url(#SVGID_00000054246506625443898810000009355885361814308760_);" d="M1242.336,1372.461
				c0,0,44.61,34.069,100.72,20.698c56.111-13.372,121.467-45.368,129.684-68.308c8.217-22.94,0.882-176.186-108.032-127.926
				C1255.793,1245.186,1138.695,1343.336,1242.336,1372.461z"/>
			
				<linearGradient id="SVGID_00000137104424709697270910000002975219433653744572_" gradientUnits="userSpaceOnUse" x1="4261.7114" y1="1850.7717" x2="4100.5034" y2="2204.0581" gradientTransform="matrix(0.9727 -0.2318 0.2318 0.9727 -3353.8916 521.2909)">
				<stop  offset="0" style="stop-color:#FDF53F"/>
				<stop  offset="1" style="stop-color:#D93C65"/>
			</linearGradient>
			<path style="fill:url(#SVGID_00000137104424709697270910000002975219433653744572_);" d="M1142.361,1236.225l254.657-110.448
				l-154.551,340.328c-2.167,4.771-6.23,8.419-11.207,10.06l-156.07,51.459c-6.756,2.227-14.19,0.443-19.198-4.609
				c-5.008-5.052-6.728-12.502-4.442-19.237L1142.361,1236.225z"/>
			
				<linearGradient id="SVGID_00000103241886923908473880000010077731084676050095_" gradientUnits="userSpaceOnUse" x1="3927.7654" y1="1676.8483" x2="4351.5396" y2="1361.6276" gradientTransform="matrix(0.9886 -0.1507 0.1507 0.9886 -2965.6995 466.8693)">
				<stop  offset="0" style="stop-color:#FDF53F"/>
				<stop  offset="1" style="stop-color:#D93C65"/>
			</linearGradient>
			<path style="fill:url(#SVGID_00000103241886923908473880000010077731084676050095_);" d="M1459.077,1332.384
				c0.718-0.02,1.389-0.151,2.018-0.392c3.443-1.323,6.123-5.865,7.97-13.501c5.934-24.551,1.804-73.078-25.952-104.089l0,0
				c-8.225-9.183-20.372-13.43-32.524-11.403c-9.971,1.685-21.796,7.61-21.511,26.289c0.449,29.28,42.477,86.911,61.538,99.798
				C1453.97,1331.357,1456.763,1332.449,1459.077,1332.384z M1415.569,1207.515c8.947-0.248,17.792,3.472,23.827,10.216l0,0
				c26.262,29.338,30.336,76.77,24.822,99.589c-1.597,6.615-3.642,9.532-4.907,10.015c-0.164,0.068-1.652,0.499-5.902-2.379
				c-19.826-13.407-58.947-69.881-59.343-95.747c-0.189-12.324,5.488-19.287,17.353-21.292
				C1412.797,1207.684,1414.187,1207.553,1415.569,1207.515z"/>
			
				<linearGradient id="SVGID_00000183230497474989947520000003389354140850472609_" gradientUnits="userSpaceOnUse" x1="908.1929" y1="638.5331" x2="338.6112" y2="1488.0773">
				<stop  offset="0" style="stop-color:#FDF53F"/>
				<stop  offset="1" style="stop-color:#D93C65"/>
			</linearGradient>
			<polygon style="fill:url(#SVGID_00000183230497474989947520000003389354140850472609_);" points="493.987,1103.283 
				521.611,1096.7 589.532,1266.87 562.114,1280.575 			"/>
			<g>
				<g>
					
						<linearGradient id="SVGID_00000065764200570374394150000006708839404431187613_" gradientUnits="userSpaceOnUse" x1="4999.5928" y1="1295.4796" x2="4612.7539" y2="1460.2441" gradientTransform="matrix(0.9727 -0.2318 0.2318 0.9727 -3353.8916 521.2909)">
						<stop  offset="0" style="stop-color:#2C759E"/>
						<stop  offset="1" style="stop-color:#051042"/>
					</linearGradient>
					<path style="fill:url(#SVGID_00000065764200570374394150000006708839404431187613_);" d="M998.588,1207.158
						c-2.166-9.087,3.445-18.21,12.533-20.375l1.046-0.25c9.087-2.166,18.209,3.445,20.375,12.533l2.561,10.747
						c2.166,9.087-3.445,18.209-12.533,20.375l-1.046,0.25c-9.087,2.166-18.209-3.445-20.375-12.533L998.588,1207.158z"/>
					
						<linearGradient id="SVGID_00000160878805052444720790000005217734845601921415_" gradientUnits="userSpaceOnUse" x1="5005.9814" y1="1315.3832" x2="4619.1387" y2="1480.1492" gradientTransform="matrix(0.9727 -0.2318 0.2318 0.9727 -3353.8916 521.2909)">
						<stop  offset="0" style="stop-color:#2C759E"/>
						<stop  offset="1" style="stop-color:#051042"/>
					</linearGradient>
					<path style="fill:url(#SVGID_00000160878805052444720790000005217734845601921415_);" d="M1060.489,1187.28
						c-2.166-9.087,3.445-18.209,12.532-20.375l1.046-0.249c9.088-2.166,18.21,3.445,20.375,12.532l2.561,10.748
						c2.166,9.087-3.445,18.209-12.532,20.375l-1.047,0.249c-9.087,2.166-18.209-3.445-20.375-12.532L1060.489,1187.28z"/>
					
						<linearGradient id="SVGID_00000047061341568535358630000013979115855225986953_" gradientUnits="userSpaceOnUse" x1="5012.3599" y1="1325.317" x2="4625.5181" y2="1490.0829" gradientTransform="matrix(0.9727 -0.2318 0.2318 0.9727 -3353.8916 521.2909)">
						<stop  offset="0" style="stop-color:#2C759E"/>
						<stop  offset="1" style="stop-color:#051042"/>
					</linearGradient>
					<path style="fill:url(#SVGID_00000047061341568535358630000013979115855225986953_);" d="M1120.079,1157.701
						c-2.166-9.088,3.445-18.21,12.532-20.375l1.047-0.249c9.087-2.166,18.209,3.445,20.375,12.532l2.562,10.748
						c2.165,9.087-3.446,18.209-12.533,20.375l-1.046,0.25c-9.088,2.166-18.21-3.445-20.375-12.533L1120.079,1157.701z"/>
					
						<linearGradient id="SVGID_00000131363894574894047430000009775351557894699913_" gradientUnits="userSpaceOnUse" x1="5013.7563" y1="1340.2361" x2="4626.9126" y2="1505.0028" gradientTransform="matrix(0.9727 -0.2318 0.2318 0.9727 -3353.8916 521.2909)">
						<stop  offset="0" style="stop-color:#2C759E"/>
						<stop  offset="1" style="stop-color:#051042"/>
					</linearGradient>
					<path style="fill:url(#SVGID_00000131363894574894047430000009775351557894699913_);" d="M1175.974,1134.128
						c-2.166-9.088,3.445-18.21,12.532-20.375l1.046-0.249c9.088-2.166,18.21,3.445,20.375,12.532l2.561,10.748
						c2.166,9.087-3.445,18.209-12.532,20.375l-1.046,0.25c-9.088,2.165-18.21-3.445-20.375-12.533L1175.974,1134.128z"/>
					
						<linearGradient id="SVGID_00000073714283979989560020000007603962490001570185_" gradientUnits="userSpaceOnUse" x1="5025.1201" y1="1355.1575" x2="4638.2778" y2="1519.9236" gradientTransform="matrix(0.9727 -0.2318 0.2318 0.9727 -3353.8916 521.2909)">
						<stop  offset="0" style="stop-color:#2C759E"/>
						<stop  offset="1" style="stop-color:#051042"/>
					</linearGradient>
					<path style="fill:url(#SVGID_00000073714283979989560020000007603962490001570185_);" d="M1241.57,1108.244
						c-2.166-9.088,3.445-18.21,12.532-20.375l1.047-0.249c9.087-2.166,18.209,3.446,20.375,12.533l2.561,10.748
						c2.166,9.087-3.445,18.209-12.532,20.375l-1.046,0.25c-9.088,2.165-18.21-3.446-20.375-12.533L1241.57,1108.244z"/>
					
						<linearGradient id="SVGID_00000162345886844393090770000004002327704573231795_" gradientUnits="userSpaceOnUse" x1="5031.4995" y1="1370.078" x2="4644.6572" y2="1534.844" gradientTransform="matrix(0.9727 -0.2318 0.2318 0.9727 -3353.8916 521.2909)">
						<stop  offset="0" style="stop-color:#2C759E"/>
						<stop  offset="1" style="stop-color:#051042"/>
					</linearGradient>
					<path style="fill:url(#SVGID_00000162345886844393090770000004002327704573231795_);" d="M1302.315,1083.515
						c-2.166-9.088,3.445-18.21,12.533-20.375l1.046-0.25c9.088-2.166,18.21,3.445,20.375,12.533l2.561,10.747
						c2.166,9.087-3.445,18.21-12.532,20.375l-1.046,0.25c-9.088,2.166-18.21-3.445-20.375-12.533L1302.315,1083.515z"/>
					
						<linearGradient id="SVGID_00000143575948926651364180000005320770407509889471_" gradientUnits="userSpaceOnUse" x1="5037.8755" y1="1380.0133" x2="4651.0361" y2="1544.7782" gradientTransform="matrix(0.9727 -0.2318 0.2318 0.9727 -3353.8916 521.2909)">
						<stop  offset="0" style="stop-color:#2C759E"/>
						<stop  offset="1" style="stop-color:#051042"/>
					</linearGradient>
					<path style="fill:url(#SVGID_00000143575948926651364180000005320770407509889471_);" d="M1361.904,1053.936
						c-2.166-9.087,3.445-18.209,12.533-20.375l1.046-0.25c9.087-2.166,18.209,3.445,20.375,12.533l2.561,10.747
						c2.166,9.088-3.445,18.21-12.533,20.375l-1.046,0.249c-9.087,2.166-18.209-3.446-20.375-12.532L1361.904,1053.936z"/>
					
						<linearGradient id="SVGID_00000057831280911919955150000001323160660299636146_" gradientUnits="userSpaceOnUse" x1="5039.272" y1="1399.9191" x2="4652.4302" y2="1564.6849" gradientTransform="matrix(0.9727 -0.2318 0.2318 0.9727 -3353.8916 521.2909)">
						<stop  offset="0" style="stop-color:#2C759E"/>
						<stop  offset="1" style="stop-color:#051042"/>
					</linearGradient>
					<path style="fill:url(#SVGID_00000057831280911919955150000001323160660299636146_);" d="M1418.955,1035.214
						c-2.165-9.087,3.446-18.209,12.533-20.375l1.046-0.25c9.088-2.166,18.21,3.445,20.375,12.533l2.562,10.747
						c2.166,9.088-3.445,18.21-12.532,20.376l-1.047,0.249c-9.087,2.166-18.209-3.445-20.375-12.532L1418.955,1035.214z"/>
					
						<linearGradient id="SVGID_00000157305024398809534780000013031358446729664411_" gradientUnits="userSpaceOnUse" x1="5045.6523" y1="1414.839" x2="4658.8101" y2="1579.6051" gradientTransform="matrix(0.9727 -0.2318 0.2318 0.9727 -3353.8916 521.2909)">
						<stop  offset="0" style="stop-color:#2C759E"/>
						<stop  offset="1" style="stop-color:#051042"/>
					</linearGradient>
					<path style="fill:url(#SVGID_00000157305024398809534780000013031358446729664411_);" d="M1479.701,1010.485
						c-2.165-9.088,3.445-18.21,12.533-20.375l1.046-0.249c9.088-2.166,18.21,3.445,20.375,12.532l2.562,10.748
						c2.166,9.087-3.445,18.209-12.533,20.375l-1.046,0.25c-9.087,2.165-18.209-3.445-20.375-12.533L1479.701,1010.485z"/>
					
						<linearGradient id="SVGID_00000062192903418919273790000002658421601075119017_" gradientUnits="userSpaceOnUse" x1="5052.0322" y1="1424.7725" x2="4665.1895" y2="1589.5387" gradientTransform="matrix(0.9727 -0.2318 0.2318 0.9727 -3353.8916 521.2909)">
						<stop  offset="0" style="stop-color:#2C759E"/>
						<stop  offset="1" style="stop-color:#051042"/>
					</linearGradient>
					<path style="fill:url(#SVGID_00000062192903418919273790000002658421601075119017_);" d="M1539.291,980.906
						c-2.166-9.088,3.445-18.21,12.532-20.375l1.047-0.25c9.087-2.166,18.209,3.445,20.375,12.533l2.561,10.747
						c2.166,9.087-3.445,18.209-12.532,20.375l-1.046,0.25c-9.088,2.166-18.21-3.445-20.375-12.533L1539.291,980.906z"/>
					
						<linearGradient id="SVGID_00000122715131202747781170000007591175034122601873_" gradientUnits="userSpaceOnUse" x1="5053.4233" y1="1444.6804" x2="4666.585" y2="1609.4448" gradientTransform="matrix(0.9727 -0.2318 0.2318 0.9727 -3353.8916 521.2909)">
						<stop  offset="0" style="stop-color:#2C759E"/>
						<stop  offset="1" style="stop-color:#051042"/>
					</linearGradient>
					<path style="fill:url(#SVGID_00000122715131202747781170000007591175034122601873_);" d="M1596.341,962.184
						c-2.166-9.088,3.446-18.21,12.533-20.375l1.046-0.25c9.087-2.166,18.209,3.445,20.375,12.533l2.561,10.747
						c2.166,9.087-3.445,18.209-12.533,20.375l-1.046,0.25c-9.087,2.166-18.209-3.445-20.375-12.533L1596.341,962.184z"/>
				</g>
				
					<linearGradient id="SVGID_00000130629653797925993050000016654853664153583510_" gradientUnits="userSpaceOnUse" x1="5070.8398" y1="1467.1688" x2="4678.48" y2="1634.2849" gradientTransform="matrix(0.9727 -0.2318 0.2318 0.9727 -3353.8916 521.2909)">
					<stop  offset="0" style="stop-color:#2C759E"/>
					<stop  offset="1" style="stop-color:#051042"/>
				</linearGradient>
				<path style="fill:url(#SVGID_00000130629653797925993050000016654853664153583510_);" d="M1796.027,844.253l-103.316,57.09
					c-7.757,4.296-11.364,13.519-8.551,21.928c3.343,9.995,7.635,21.169,9.682,19.65c3.617-2.687,166.564-88.076,166.564-88.076
					L1796.027,844.253z"/>
			</g>
		</g>
		<g>
			<g>
				
					<linearGradient id="SVGID_00000026131711344945371400000006828124183567223471_" gradientUnits="userSpaceOnUse" x1="1721.6099" y1="3357.2458" x2="2387.2112" y2="2737.7256">
					<stop  offset="0" style="stop-color:#233894"/>
					<stop  offset="0.9964" style="stop-color:#DD397A"/>
				</linearGradient>
				<path style="fill:url(#SVGID_00000026131711344945371400000006828124183567223471_);" d="M1804.637,2910.139
					c70.857-65.674,377.437-349.434,397.104-355.549c5.533-1.721,10.914-1.467,10.914-1.467c10.853,0.512,19.54,6.867,25.502,12.75
					c0,0,114.755,385.705,140.256,549.869h-581.745L1804.637,2910.139z"/>
				
					<linearGradient id="SVGID_00000047754186269823368620000009947062462493832605_" gradientUnits="userSpaceOnUse" x1="2872.5876" y1="1960.4612" x2="2100.4656" y2="3579.2053">
					<stop  offset="0" style="stop-color:#233894"/>
					<stop  offset="0.9964" style="stop-color:#DD397A"/>
				</linearGradient>
				<path style="fill:url(#SVGID_00000047754186269823368620000009947062462493832605_);" d="M2698.771,3115.742
					c-40.174-87.915-82.268-156.266-114.755-204.009c-29.533-43.401-94.5-132.304-197.128-227.211
					c-52.692-48.727-101.429-86.136-139.93-113.341c-6.091-6.277-15.74-14.013-29.096-17.119c-1.781-0.414-3.52-0.721-5.207-0.939
					c39.043,187.54,78.086,375.08,117.129,562.619C2452.78,3115.742,2575.776,3115.742,2698.771,3115.742z"/>
			</g>
		</g>
		<g>
			<path style="fill:#406DF9;" d="M2820.06,1717.151l4.4-136.391c0.526-5.171,2.436-8.69,3.919-8.662
				c1.474,0.028,3.229,3.577,3.598,8.662c0,45.464,0,90.927,0,136.391H2820.06z"/>
			
				<linearGradient id="SVGID_00000052082525277227415600000013492103856902097072_" gradientUnits="userSpaceOnUse" x1="1688.9156" y1="5182.7729" x2="3339.7524" y2="1809.9867">
				<stop  offset="0" style="stop-color:#53D8FF"/>
				<stop  offset="1" style="stop-color:#3840F7"/>
			</linearGradient>
			<path style="fill:url(#SVGID_00000052082525277227415600000013492103856902097072_);" d="M3155.995,3001.793
				c-19.799-26.398-136.39-290.38-175.988-409.171s-76.995-305.778-87.994-360.775c-11-54.996-28.598-437.769-28.598-437.769
				h-76.994c0,0-13.199,343.176-32.998,435.569s-57.196,270.581-92.394,362.974c-35.198,92.394-175.988,431.17-197.986,461.5
				c-21.999,30.331-70.395,66.462-70.395,66.462h243.67c-2.531-11.96-3.887-24.354-3.887-37.068
				c0-98.41,79.777-178.188,178.187-178.188s178.188,79.777,178.188,178.188c0,12.714-1.356,25.108-3.887,37.068h3.887h270.581
				C3259.388,3120.585,3175.794,3028.191,3155.995,3001.793z M2726.805,2757.968c0,0,50.596-48.754,54.996-207.143h92.613
				c0,0-6.599,139.306,65.996,207.143H2726.805z"/>
			
				<linearGradient id="SVGID_00000091726519433002866360000003115675532811177104_" gradientUnits="userSpaceOnUse" x1="2305.9575" y1="3655.8638" x2="2894.3953" y2="2330.552">
				<stop  offset="0" style="stop-color:#53D8FF"/>
				<stop  offset="1" style="stop-color:#3840F7"/>
			</linearGradient>
			<path style="fill:url(#SVGID_00000091726519433002866360000003115675532811177104_);" d="M2987.142,2511.778h-322.248
				c-2.73,0-4.964-2.234-4.964-4.964v-44.518c0-2.73,2.234-4.964,4.964-4.964h322.248c2.73,0,4.964,2.234,4.964,4.964v44.518
				C2992.107,2509.544,2989.873,2511.778,2987.142,2511.778z"/>
			
				<linearGradient id="SVGID_00000029010038751359015800000001087040070200925326_" gradientUnits="userSpaceOnUse" x1="1781.0754" y1="4544.4795" x2="3081.521" y2="2382.2954">
				<stop  offset="0" style="stop-color:#53D8FF"/>
				<stop  offset="1" style="stop-color:#3840F7"/>
			</linearGradient>
			<path style="fill:url(#SVGID_00000029010038751359015800000001087040070200925326_);" d="M3116.482,2836.805h-580.927
				c-2.979,0-5.416-2.437-5.416-5.415v-48.565c0-2.979,2.437-5.415,5.416-5.415h580.927c2.979,0,5.416,2.437,5.416,5.415v48.565
				C3121.897,2834.368,3119.46,2836.805,3116.482,2836.805z"/>
			
				<linearGradient id="SVGID_00000108276825940594550490000005261281154829670536_" gradientUnits="userSpaceOnUse" x1="3483.5593" y1="434.1901" x2="2716.5552" y2="2059.626">
				<stop  offset="0" style="stop-color:#53D8FF"/>
				<stop  offset="1" style="stop-color:#3840F7"/>
			</linearGradient>
			<path style="fill:url(#SVGID_00000108276825940594550490000005261281154829670536_);" d="M2859.108,1702.852
				c11.094,7.357,13.605,20.366,14.849,26.811c3.69,19.114-5.262,25.441-0.412,40.835c1.209,3.837,6.322,10.172,16.499,22.686
				c20.282,24.94,25.904,29.596,26.398,39.597c0.499,10.078-4.595,17.496-5.946,19.366c-10.78,14.932-32.414,14.457-32.414,14.457
				h-45.784h-12.559h-45.784c0,0-21.634,0.475-32.414-14.457c-1.35-1.87-6.444-9.287-5.945-19.366
				c0.495-10.001,6.116-14.658,26.398-39.597c10.177-12.514,15.29-18.849,16.499-22.686c4.85-15.394-4.103-21.72-0.413-40.835
				c1.244-6.445,3.755-19.453,14.849-26.811C2803.208,1696.034,2848.828,1696.034,2859.108,1702.852z"/>
		</g>
		<g>
			
				<linearGradient id="SVGID_00000053535700077288357160000000204057234152679591_" gradientUnits="userSpaceOnUse" x1="2600.8174" y1="2867.3052" x2="2644.0972" y2="2634.4893">
				<stop  offset="0" style="stop-color:#FDF53F"/>
				<stop  offset="1" style="stop-color:#D93C65"/>
			</linearGradient>
			
				<rect x="2591.259" y="2667.772" style="fill:url(#SVGID_00000053535700077288357160000000204057234152679591_);" width="84.934" height="45.015"/>
			
				<linearGradient id="SVGID_00000083075727261421151360000018016842876135569056_" gradientUnits="userSpaceOnUse" x1="2588.7087" y1="3468.0835" x2="2702.2229" y2="2819.4277">
				<stop  offset="0" style="stop-color:#FDF53F"/>
				<stop  offset="1" style="stop-color:#D93C65"/>
			</linearGradient>
			<path style="fill:url(#SVGID_00000083075727261421151360000018016842876135569056_);" d="M2870.586,3164.343h-445.853
				c-3.985,0-7.245-3.26-7.245-7.245v-51.758c0-3.985,3.26-7.245,7.245-7.245h445.853c3.985,0,7.245,3.26,7.245,7.245v51.758
				C2877.831,3161.083,2874.571,3164.343,2870.586,3164.343z"/>
			
				<linearGradient id="SVGID_00000090990073864709886440000001020592490360208310_" gradientUnits="userSpaceOnUse" x1="2427.3735" y1="3402.769" x2="2784.3904" y2="2899.0566">
				<stop  offset="0" style="stop-color:#FDF53F"/>
				<stop  offset="1" style="stop-color:#D93C65"/>
			</linearGradient>
			<path style="fill:url(#SVGID_00000090990073864709886440000001020592490360208310_);" d="M2905.501,3113.022h-515.683
				c-2.533,0-4.605-2.072-4.605-4.605v-32.896c0-2.533,2.072-4.605,4.605-4.605h515.683c2.533,0,4.605,2.072,4.605,4.605v32.896
				C2910.106,3110.95,2908.034,3113.022,2905.501,3113.022z"/>
			
				<linearGradient id="SVGID_00000044898522352521309420000008909852795704905633_" gradientUnits="userSpaceOnUse" x1="2631.6187" y1="2551.7056" x2="2631.6187" y2="3126.9749">
				<stop  offset="0" style="stop-color:#FDF53F"/>
				<stop  offset="1" style="stop-color:#D93C65"/>
			</linearGradient>
			<path style="fill:url(#SVGID_00000044898522352521309420000008909852795704905633_);" d="M2787.813,2846.712
				c3.388-59.105,15.03-70.714,10.192-90.047c-18.693-74.705-269.767-71.208-304.081-28.895
				c-17.845,22.005-22.066,45.864-22.066,45.864c-5.759,30.373,7.185,37.966,5.096,69.664
				c-2.191,33.124-17.174,37.762-22.117,69.663c-2.752,17.785-2.293,43.928,13.607,78.123c115.527-2.854,225.716,2.854,341.244,0
				c-8.205-18.04-13.211-53.814-18.511-88.315C2789.138,2889.213,2786.438,2870.714,2787.813,2846.712z"/>
			
				<linearGradient id="SVGID_00000124875215323416186660000010755298865288873911_" gradientUnits="userSpaceOnUse" x1="2515.1982" y1="3399.9644" x2="2672.8745" y2="2551.7717">
				<stop  offset="0" style="stop-color:#FDF53F"/>
				<stop  offset="1" style="stop-color:#D93C65"/>
			</linearGradient>
			<path style="fill:url(#SVGID_00000124875215323416186660000010755298865288873911_);" d="M2589.348,2699.869
				c-5.32,2.607-19.918,10.131-24.487,45.228c0,19.212,0,38.424,0,57.636c0,36.437,29.812,66.249,66.249,66.249
				c36.437,0,66.249-29.812,66.249-66.249v-57.636c-2.894-32.508-16.042-42.008-21.194-44.914
				C2668.21,2695.696,2597.405,2695.921,2589.348,2699.869z"/>
			
				<linearGradient id="SVGID_00000064320785254394619400000003982757938255847048_" gradientUnits="userSpaceOnUse" x1="2521.2805" y1="3187.9268" x2="2669.0657" y2="2392.9429">
				<stop  offset="0" style="stop-color:#FDF53F"/>
				<stop  offset="1" style="stop-color:#D93C65"/>
			</linearGradient>
			<path style="fill:url(#SVGID_00000064320785254394619400000003982757938255847048_);" d="M2633.062,2685.664L2633.062,2685.664
				c-41.809,0-76.016-29.812-76.016-66.249v-57.607c-0.285-3.51-2.657-40.514,26.33-64.198
				c20.326-16.608,43.436-16.341,49.686-16.065h0c4.558-0.261,32.54-1.396,54.782,20.311c24.641,24.047,21.665,56.046,21.233,59.951
				v57.607C2709.078,2655.852,2674.871,2685.664,2633.062,2685.664z"/>
			
				<linearGradient id="SVGID_00000155107618788332223600000009925542190879163787_" gradientUnits="userSpaceOnUse" x1="2658.2471" y1="3116.0552" x2="2658.2471" y2="2857.5818">
				<stop  offset="0" style="stop-color:#FDF53F"/>
				<stop  offset="1" style="stop-color:#D93C65"/>
			</linearGradient>
			<path style="fill:url(#SVGID_00000155107618788332223600000009925542190879163787_);" d="M2511.421,3017.531
				c-11.122-18.825-1.001-51.455,18.18-68.241c12.716-11.129,31.96-15.573,49.262-15.288c21.224,0.35,23.977,8.885,54.358,11.042
				c19.619,1.393,28.939-1.424,32.275-2.548c15.958-5.378,24.395-15.641,29.727-20.384c22.813-20.292,72.654-25.036,97.529-1.008
				c18.229,17.608,21.578,49.356,10.842,79.442c-33.842,8.926-82.1,19.871-140.99,27.179
				C2581.376,3037.804,2527.039,3043.968,2511.421,3017.531z"/>
			
				<linearGradient id="SVGID_00000097494166246924706490000015915060937596162691_" gradientUnits="userSpaceOnUse" x1="2590.8906" y1="3340.887" x2="2737.3735" y2="2552.908">
				<stop  offset="0" style="stop-color:#FDF53F"/>
				<stop  offset="1" style="stop-color:#D93C65"/>
			</linearGradient>
			<path style="fill:url(#SVGID_00000097494166246924706490000015915060937596162691_);" d="M2847.77,3091.969h-388.33
				c-41.86-8.198-70.757-35.02-72.019-62.336c-1.39-30.076,31.038-53.887,53.504-63.741c66.437-29.139,99.844,40.06,198.28,37.183
				c72.04-2.105,149.606-41.958,208.565-35.779c27.838,2.918,40.701,14.963,44.025,18.312
				c12.596,12.686,16.656,29.772,16.656,29.772c1.082,4.582,1.655,9.354,1.655,14.253
				C2910.106,3063.917,2882.055,3091.969,2847.77,3091.969z"/>
			
				<linearGradient id="SVGID_00000109007282682254800380000016583388543735746491_" gradientUnits="userSpaceOnUse" x1="2633.1809" y1="2603.8596" x2="2633.1809" y2="2402.5649">
				<stop  offset="0" style="stop-color:#FDF53F"/>
				<stop  offset="1" style="stop-color:#D93C65"/>
			</linearGradient>
			<path style="fill:url(#SVGID_00000109007282682254800380000016583388543735746491_);" d="M2708.472,2542.876
				c-0.892-6.839-3.967-22.955-16.885-37.434c-7.413-8.309-15.435-13.128-20.96-15.83c-0.417-1.09-1.213-3.203-2.138-5.881
				c-7.532-21.798-7.376-34.045-15.652-37.637c-0.592-0.257-1.71-0.679-3.291-0.85c-11.714,0-23.428,0-35.142,0
				c-0.714,0.036-1.784,0.152-2.999,0.555c-7.939,2.631-8.035,15.637-15.343,38.819c-0.808,2.565-1.494,4.59-1.834,5.586
				c-5.103,2.83-11.399,7.116-17.411,13.54c-14.207,15.181-17.824,32.682-18.926,40.517c14.68-6.497,39.594-15.313,71.589-16.207
				C2665.249,2527.056,2693.13,2536.426,2708.472,2542.876z"/>
		</g>
		<g>
			<g>
				<g>
					
						<linearGradient id="SVGID_00000119108471898626547290000012522947009277801353_" gradientUnits="userSpaceOnUse" x1="10870.1064" y1="2917.0637" x2="9579.627" y2="3753.6162" gradientTransform="matrix(-1 0 0 1 11862.3076 0)">
						<stop  offset="0" style="stop-color:#53D8FF"/>
						<stop  offset="1" style="stop-color:#3840F7"/>
					</linearGradient>
					<path style="fill:url(#SVGID_00000119108471898626547290000012522947009277801353_);" d="M489.808,3183.369l1395.529,0.002
						v-279.315l-1395.529,0.002C519.678,2904.059,519.678,3183.369,489.808,3183.369z"/>
					
						<linearGradient id="SVGID_00000164503929980312548970000013077351894441857451_" gradientUnits="userSpaceOnUse" x1="1886.9067" y1="1926.9939" x2="173.3336" y2="4724.2441">
						<stop  offset="0" style="stop-color:#233894"/>
						<stop  offset="0.9964" style="stop-color:#DD397A"/>
					</linearGradient>
					<path style="fill:url(#SVGID_00000164503929980312548970000013077351894441857451_);" d="M1885.337,3113.474v-127.826
						c0-45.061-27.578-81.589-61.597-81.589H495.693c-26.753,0-48.44-21.688-48.44-48.441v0c0-8.129,6.59-14.718,14.718-14.718
						h1451.452c33.286,0,86.135,52.334,86.135,116.891v178.524c0,60.868-51.306,110.211-82.69,110.211H469.605
						c-12.345,0-22.353-10.008-22.353-22.353c0-22.535,18.268-40.804,40.803-40.804h1344.514
						C1861.712,3183.369,1885.337,3152.076,1885.337,3113.474z"/>
				</g>
				<path style="fill:#FFFFFF;" d="M1846.633,2964.753H538.134c-1.87,0-3.386-1.515-3.386-3.386s1.516-3.386,3.386-3.386h1308.499
					c1.87,0,3.386,1.515,3.386,3.386S1848.503,2964.753,1846.633,2964.753z"/>
				<path style="fill:#FFFFFF;" d="M1846.633,3006.212H538.134c-1.87,0-3.386-1.515-3.386-3.386s1.516-3.386,3.386-3.386h1308.499
					c1.87,0,3.386,1.515,3.386,3.386S1848.503,3006.212,1846.633,3006.212z"/>
				<path style="fill:#FFFFFF;" d="M1846.633,3047.67H538.134c-1.87,0-3.386-1.515-3.386-3.387s1.516-3.386,3.386-3.386h1308.499
					c1.87,0,3.386,1.515,3.386,3.386S1848.503,3047.67,1846.633,3047.67z"/>
				<path style="fill:#FFFFFF;" d="M1846.633,3089.131H538.134c-1.87,0-3.386-1.515-3.386-3.386s1.516-3.386,3.386-3.386h1308.499
					c1.87,0,3.386,1.515,3.386,3.386S1848.503,3089.131,1846.633,3089.131z"/>
				<path style="fill:#FFFFFF;" d="M1846.633,3130.589H538.134c-1.87,0-3.386-1.515-3.386-3.386s1.516-3.386,3.386-3.386h1308.499
					c1.87,0,3.386,1.515,3.386,3.386S1848.503,3130.589,1846.633,3130.589z"/>
			</g>
			<g>
				
					<linearGradient id="SVGID_00000109752248089689051500000013201640753905383832_" gradientUnits="userSpaceOnUse" x1="1851.6313" y1="2087.9646" x2="799.0226" y2="3003.7351">
					<stop  offset="0" style="stop-color:#233894"/>
					<stop  offset="0.9964" style="stop-color:#DD397A"/>
				</linearGradient>
				<path style="fill:url(#SVGID_00000109752248089689051500000013201640753905383832_);" d="M554.09,2839.63h1215.519
					c11.098,0,20.095-8.997,20.095-20.095v-262.918c0-11.098-8.997-20.095-20.095-20.095H554.09
					c-11.098,0-20.095,8.997-20.095,20.095v262.918C533.995,2830.633,542.992,2839.63,554.09,2839.63z"/>
				
					<linearGradient id="SVGID_00000011737453950274002000000012322104429109488565_" gradientUnits="userSpaceOnUse" x1="2558.7993" y1="1502.495" x2="1191.5258" y2="3148.5828">
					<stop  offset="0" style="stop-color:#A737D5"/>
					<stop  offset="1" style="stop-color:#EF497A"/>
				</linearGradient>
				<path style="fill:url(#SVGID_00000011737453950274002000000012322104429109488565_);" d="M1507.515,2804.794h133.034
					c3.999,0,7.242-3.242,7.242-7.242v-218.953c0-4-3.242-7.242-7.242-7.242h-133.034c-4,0-7.242,3.242-7.242,7.242v218.953
					C1500.273,2801.552,1503.516,2804.794,1507.515,2804.794z"/>
				
					<linearGradient id="SVGID_00000181789376691311861080000004897854618663904924_" gradientUnits="userSpaceOnUse" x1="2468.3997" y1="1463.088" x2="1127.9124" y2="3076.9275">
					<stop  offset="0" style="stop-color:#A737D5"/>
					<stop  offset="1" style="stop-color:#EF497A"/>
				</linearGradient>
				<path style="fill:url(#SVGID_00000181789376691311861080000004897854618663904924_);" d="M1426.895,2804.794h48.011
					c2.027,0,3.67-1.643,3.67-3.67v-226.098c0-2.027-1.643-3.669-3.67-3.669h-48.011c-2.027,0-3.669,1.643-3.669,3.669v226.098
					C1423.225,2803.151,1424.868,2804.794,1426.895,2804.794z"/>
			</g>
		</g>
		<g>
			
				<linearGradient id="SVGID_00000093887387710066011660000000539849424197538745_" gradientUnits="userSpaceOnUse" x1="19215.2676" y1="2475.489" x2="18896.5527" y2="2657.406" gradientTransform="matrix(1 0 0 1 -17328.957 0)">
				<stop  offset="0" style="stop-color:#F9B776"/>
				<stop  offset="1" style="stop-color:#F47960"/>
			</linearGradient>
			<path style="fill:url(#SVGID_00000093887387710066011660000000539849424197538745_);" d="M1837.854,2772.056
				c-0.376-0.144-202.533-354.169-229.85-387.485c-4.596-5.604-11.708-8.457-18.905-7.6l-56.425,6.724l-66.288,143.405
				l110.433-64.315c-10.927,75.575,130.939,187.889,179.594,228.871c4.938,4.159,5.343,11.608,0.883,16.276l-19.424,20.334
				c31.89,32.324,68.688,53.08,110.22,62.679L1837.854,2772.056z"/>
			
				<linearGradient id="SVGID_00000129922226570003498510000007320409243333434813_" gradientUnits="userSpaceOnUse" x1="-9083.8896" y1="-3913.0576" x2="-9108.3564" y2="-3537.9058" gradientTransform="matrix(-0.8974 -0.4412 -0.4412 0.8974 -8033.6787 2161.1482)">
				<stop  offset="0" style="stop-color:#2B3582"/>
				<stop  offset="1" style="stop-color:#150E42"/>
			</linearGradient>
			<path style="fill:url(#SVGID_00000129922226570003498510000007320409243333434813_);" d="M1749.108,2717.292
				c0,0-12.397,4.005-16.594,15.046c-2.008,5.283,0.156,11.266,4.751,14.557c20.413,14.625,87.748,61.841,118.821,71.088
				c2.547,0.758,4.97-1.546,4.397-4.141c-1.595-7.218-6.752-21.633-23.37-42.735l1.491,3.016c1.887,3.816-2.269,7.79-5.976,5.697
				C1811.844,2768.088,1769.513,2742.409,1749.108,2717.292z"/>
			
				<linearGradient id="SVGID_00000109011388425490092820000012105378677853439112_" gradientUnits="userSpaceOnUse" x1="19184.4355" y1="2520.8574" x2="20274.916" y2="1838.2006" gradientTransform="matrix(1 0 0 1 -17328.957 0)">
				<stop  offset="0" style="stop-color:#F9B776"/>
				<stop  offset="1" style="stop-color:#F47960"/>
			</linearGradient>
			<path style="fill:url(#SVGID_00000109011388425490092820000012105378677853439112_);" d="M1759.112,2858.946
				c-0.339-0.218-30.669-73.293-31.008-73.51c-27.809-169.314-95.658-314.319-115.667-352.474
				c-3.367-6.417-9.754-10.651-16.976-11.268l-56.618-4.834l-93.938,127.022l121.164-40.635
				c-25.996,71.8,90.205,210.5,129.559,260.48c3.994,5.072,2.884,12.45-2.429,16.119l-23.137,15.982
				c24.688,38.109,56.524,65.882,95.254,83.688L1759.112,2858.946z"/>
			
				<linearGradient id="SVGID_00000044140768818535239840000010867376947977622972_" gradientUnits="userSpaceOnUse" x1="-7497.4189" y1="-6389.1543" x2="-7521.8838" y2="-6014.0273" gradientTransform="matrix(-0.7895 -0.6137 -0.6137 0.7895 -8051.2676 3191.1018)">
				<stop  offset="0" style="stop-color:#2B3582"/>
				<stop  offset="1" style="stop-color:#150E42"/>
			</linearGradient>
			<path style="fill:url(#SVGID_00000044140768818535239840000010867376947977622972_);" d="M1683.286,2787.355
				c0,0-12.951,1.413-19.296,11.376c-3.035,4.767-2.126,11.064,1.706,15.217c17.031,18.453,73.417,78.32,101.975,93.664
				c2.341,1.258,5.181-0.508,5.145-3.166c-0.101-7.392-2.235-22.552-14.238-46.58l0.85,3.255c1.075,4.119-3.798,7.169-7.005,4.37
				C1734.444,2849.796,1698.185,2816.082,1683.286,2787.355z"/>
			<g>
				
					<linearGradient id="SVGID_00000167356554745214104590000008948543648085884314_" gradientUnits="userSpaceOnUse" x1="1206.7891" y1="2600.2991" x2="1867.1235" y2="2097.4285">
					<stop  offset="0" style="stop-color:#233894"/>
					<stop  offset="0.9964" style="stop-color:#DD397A"/>
				</linearGradient>
				<path style="fill:url(#SVGID_00000167356554745214104590000008948543648085884314_);" d="M1273.818,2390.108
					c0,0-51.219,76.181-55.422,110.932c-4.203,34.75,14.163,46.768,67.772,51.2c159.531,13.188,238.173-34.624,238.173-34.624
					c10.913-69.581,18.678-87.283,109.822-125.116c0,0-115.28,9.152-138.481,0.149
					C1472.481,2383.646,1273.818,2390.108,1273.818,2390.108z"/>
			</g>
			<g>
				
					<linearGradient id="SVGID_00000014619213869791722480000004359437350840080030_" gradientUnits="userSpaceOnUse" x1="-12243.4727" y1="-490.1491" x2="-12165.1006" y2="-293.5534" gradientTransform="matrix(-0.9446 -0.3283 -0.3283 0.9446 -10193.4209 -1699.1722)">
					<stop  offset="0" style="stop-color:#2B3582"/>
					<stop  offset="1" style="stop-color:#150E42"/>
				</linearGradient>
				<path style="fill:url(#SVGID_00000014619213869791722480000004359437350840080030_);" d="M1478.062,1963.292
					c0,0-35.673-42.207-73.599,9.578c-6.869,9.379-33.251,1.641-42.923,21.273c-4.994,10.136-15.78,15.894-26.892,13.845
					c-27.675-5.105-72.91-5.534-95.244,37.834c-17.048,33.103-3.886,52.476,13.156,63.52c12.516,8.113,16.983,24.582,9.415,37.434
					c-7.26,12.327-8.624,29.02,10.12,49.11c42.006,45.021,125.158-28.571,125.158-28.571l66.022-156.01L1478.062,1963.292z"/>
				
					<linearGradient id="SVGID_00000028283343517635925280000010303987080975556239_" gradientUnits="userSpaceOnUse" x1="18851.1035" y1="2128.0852" x2="18099.7734" y2="2852.8208" gradientTransform="matrix(1 0 0 1 -17328.957 0)">
					<stop  offset="0" style="stop-color:#FDF53F"/>
					<stop  offset="1" style="stop-color:#D93C65"/>
				</linearGradient>
				<path style="fill:url(#SVGID_00000028283343517635925280000010303987080975556239_);" d="M1412.334,2380.023
					c0,0,59.644-56.794,89.004-94.411c15.87-20.334,20.854-47.103,13.515-71.831c-13.404-45.16-37.226-91.932-39.398-99.212
					c-3.33-11.158-70.207-10.694-70.207-10.694s-131.601,85.411-183.308,230.09l58.07,18.078c0,0,34.361-57.647,68.312-94.298
					c0,0-58.747,77.606-60.816,109.377L1412.334,2380.023z"/>
				
					<linearGradient id="SVGID_00000004509666071392640120000000882325833511998391_" gradientUnits="userSpaceOnUse" x1="-10260.5889" y1="2370.6299" x2="-9943.1035" y2="2370.6299" gradientTransform="matrix(-1 0 0 1 -8932.4951 0)">
					<stop  offset="0" style="stop-color:#F9B776"/>
					<stop  offset="1" style="stop-color:#F47960"/>
				</linearGradient>
				<path style="fill:url(#SVGID_00000004509666071392640120000000882325833511998391_);" d="M1525.976,2402.435l-44.817-48.761
					l-51.759,13.937c0,0-60.343,9.349-94.879,0c-34.536-9.349-34.536-9.349-34.536-9.349l-78.045-24.297l-12.257,34.641
					c-3.112,8.795,0.015,18.56,7.62,23.963c6.752,4.798,14.667,10.071,19.711,12.278c10.278,4.496,236.759,1.422,236.759,1.422
					L1525.976,2402.435z"/>
				
					<linearGradient id="SVGID_00000007424135675160603680000013262935194159707320_" gradientUnits="userSpaceOnUse" x1="-12176.5371" y1="1244.0552" x2="-12161.0166" y2="1130.5146" gradientTransform="matrix(-0.9974 -0.0717 -0.0717 0.9974 -10598.3652 105.0094)">
					<stop  offset="0" style="stop-color:#F9B776"/>
					<stop  offset="1" style="stop-color:#F47960"/>
				</linearGradient>
				<path style="fill:url(#SVGID_00000007424135675160603680000013262935194159707320_);" d="M1451.211,2023.466l-44.948,83.583
					c2.968,18.245,48.922,18.76,56.02,7.865c0.723-1.108,1.136-2.391,1.41-3.686l26.888-55.848
					c1.154-5.446-13.775-23.796-18.689-26.411l-17.866-9.51C1447.147,2015.798,1475.853,2015.51,1451.211,2023.466z"/>
				<g>
					
						<linearGradient id="SVGID_00000046301537279807807880000012092840538744087185_" gradientUnits="userSpaceOnUse" x1="-10652.5898" y1="-4549.1162" x2="-10506.46" y2="-4809.1787" gradientTransform="matrix(-0.5458 -0.8379 -0.8379 0.5458 -8179.3809 -4320.769)">
						<stop  offset="0" style="stop-color:#F9B776"/>
						<stop  offset="1" style="stop-color:#F47960"/>
					</linearGradient>
					<path style="fill:url(#SVGID_00000046301537279807807880000012092840538744087185_);" d="M1542.179,2003.85
						c0,0,5.074,28.239-17.121,64.143s-44.297,34.283-55.526,21.479c-11.229-12.804-24.679-34.13-18.559-69.941
						C1457.092,1983.721,1534.512,1967.84,1542.179,2003.85z"/>
					
						<linearGradient id="SVGID_00000129179547241805566570000008683641811646594951_" gradientUnits="userSpaceOnUse" x1="-10621.166" y1="-4775.5903" x2="-10548.1016" y2="-4592.3091" gradientTransform="matrix(-0.5458 -0.8379 -0.8379 0.5458 -8179.3809 -4320.769)">
						<stop  offset="0" style="stop-color:#2B3582"/>
						<stop  offset="1" style="stop-color:#150E42"/>
					</linearGradient>
					<path style="fill:url(#SVGID_00000129179547241805566570000008683641811646594951_);" d="M1477.841,2023.423
						c0,0,35.939-47.206,63.532-6.054l-0.465,14.216c0,0,35.881-1.678,31.99-34.748c-3.891-33.072-33.185-55.663-73.795-44.364
						c-40.61,11.299-64.34,24.167-68.925,52.362c-4.586,28.195,18.437,23.589,18.437,23.589s8.794-19.455,19.413-20.783
						c10.619-1.329,6.782,14.06,6.782,14.06L1477.841,2023.423z"/>
					
						<linearGradient id="SVGID_00000100361745595579501210000006970151800866053552_" gradientUnits="userSpaceOnUse" x1="-10621.4834" y1="-4531.6401" x2="-10475.3545" y2="-4791.7012" gradientTransform="matrix(-0.5458 -0.8379 -0.8379 0.5458 -8179.3809 -4320.769)">
						<stop  offset="0" style="stop-color:#F9B776"/>
						<stop  offset="1" style="stop-color:#F47960"/>
					</linearGradient>
					<path style="fill:url(#SVGID_00000100361745595579501210000006970151800866053552_);" d="M1469.594,2022.164
						c0,0,18.617-24.158,1.671-29.172c-16.946-5.014-16.313,23.671-15.209,34.343L1469.594,2022.164z"/>
				</g>
			</g>
			<g>
				
					<linearGradient id="SVGID_00000025440333385273938950000014647075974406462087_" gradientUnits="userSpaceOnUse" x1="-10340.6123" y1="1913.4659" x2="-10506.6992" y2="1958.986" gradientTransform="matrix(-0.9988 -0.0494 -0.0494 0.9988 -8891.0254 -55.0328)">
					<stop  offset="0" style="stop-color:#2B3582"/>
					<stop  offset="1" style="stop-color:#150E42"/>
				</linearGradient>
				<path style="fill:url(#SVGID_00000025440333385273938950000014647075974406462087_);" d="M1377.626,2421.734
					c0.157,0.008,0.315,0.012,0.474,0.011l206.138-0.225c5.096-0.004,9.222-4.139,9.217-9.235c-0.005-5.098-4.156-9.309-9.238-9.217
					l-206.138,0.225c-5.096,0.004-9.222,4.14-9.217,9.236C1368.869,2417.465,1372.751,2421.493,1377.626,2421.734z"/>
				
					<linearGradient id="SVGID_00000165219462092099367600000014287178693912301491_" gradientUnits="userSpaceOnUse" x1="844.8992" y1="2340.2292" x2="2338.6738" y2="2214.551" gradientTransform="matrix(-1 0 0 1 2618.6147 0)">
					<stop  offset="0" style="stop-color:#2B3582"/>
					<stop  offset="1" style="stop-color:#150E42"/>
				</linearGradient>
				<path style="fill:url(#SVGID_00000165219462092099367600000014287178693912301491_);" d="M1769.548,2234.573h-171.674
					c-12.664,0-24.191,7.308-29.593,18.763l-79.364,168.288h213.344c8.161,0,15.494-4.987,18.494-12.577l61.543-155.725
					C1785.854,2244.324,1779.223,2234.573,1769.548,2234.573z"/>
				
					<linearGradient id="SVGID_00000100363740990562856810000016491412345723458469_" gradientUnits="userSpaceOnUse" x1="-10571.1816" y1="2290.6831" x2="-10624.6523" y2="2371.2048" gradientTransform="matrix(-1 0 0 1 -8932.4951 0)">
					<stop  offset="0" style="stop-color:#53D8FF"/>
					<stop  offset="1" style="stop-color:#3840F7"/>
				</linearGradient>
				<path style="fill:url(#SVGID_00000100363740990562856810000016491412345723458469_);" d="M1648.602,2320.859
					c-3.72,11.558-0.972,22.783,6.139,25.072c7.111,2.289,15.89-5.226,19.61-16.784c3.72-11.558,0.972-22.783-6.138-25.072
					C1661.103,2301.787,1652.323,2309.301,1648.602,2320.859z"/>
			</g>
		</g>
	</g>
</g>
</svg>
